<?xml version="1.0" encoding="UTF-8"?>
<svg id="Ebene_1" xmlns="http://www.w3.org/2000/svg" version="1.1" viewBox="0 0 1000 1000">
  <defs>
    <style>.st0{fill:#727272;}</style>
  </defs>
  <!-- CIRCLE (schwarz) -->
  <path d="M473.3,500.7v-.2c0-24.4,18.3-44.4,44.2-44.4s25.4,5.5,33.6,13.4l-9.7,11.2c-6.9-6.4-14.2-10.7-24-10.7-16.3,0-28.3,13.5-28.3,30.3v.2c0,16.8,11.9,30.4,28.3,30.4s17.3-4.2,24.6-11l9.7,9.8c-8.9,9.3-18.7,15.2-34.8,15.2-25,0-43.6-19.5-43.6-44.1Z"/>
  <path d="M569.6,457.6h15.1v85.8h-15.1v-85.8Z"/>
  <path d="M608.8,457.6h38.2c10.8,0,19.2,3.2,24.8,8.6,4.5,4.7,7.1,11,7.1,18.5v.2c0,14.1-8.5,22.5-20.3,26l23.2,32.5h-17.9l-21.1-29.9h-18.9v29.9h-15.1v-85.8ZM645.9,500.1c10.8,0,17.6-5.6,17.6-14.3v-.2c0-9.2-6.6-14.2-17.8-14.2h-21.9v28.8h22.1Z"/>
  <path d="M694.8,500.7v-.2c0-24.4,18.3-44.4,44.2-44.4s25.4,5.5,33.6,13.4l-9.7,11.2c-6.9-6.4-14.2-10.7-24-10.7-16.3,0-28.3,13.5-28.3,30.3v.2c0,16.8,11.9,30.4,28.3,30.4s17.3-4.2,24.6-11l9.7,9.8c-8.9,9.3-18.7,15.2-34.8,15.2-25,0-43.6-19.5-43.6-44.1Z"/>
  <path d="M790.2,457.6h15.1v72h45.1v13.7h-60.2v-85.8Z"/>
  <path d="M867.3,457.6h63.6v13.5h-48.5v22.3h43v13.5h-43v23h49.1v13.5h-64.2v-85.8Z"/>
  <!-- INNER (grau #727272) -->
  <g>
    <path class="st0" d="M68.7,457.6h15.1v85.8h-15.1v-85.8Z"/>
    <path class="st0" d="M107.9,457.6h14l45.9,59.3v-59.3h14.8v85.8h-12.6l-47.3-61v61h-14.8v-85.8Z"/>
    <path class="st0" d="M205.9,457.6h14l45.9,59.3v-59.3h14.8v85.8h-12.6l-47.3-61v61h-14.8v-85.8Z"/>
    <path class="st0" d="M303.9,457.6h63.6v13.5h-48.5v22.3h43v13.5h-43v23h49.1v13.5h-64.2v-85.8Z"/>
    <path class="st0" d="M387.3,457.6h38.2c10.8,0,19.2,3.2,24.8,8.6,4.5,4.7,7.1,11,7.1,18.5v.2c0,14.1-8.5,22.5-20.3,26l23.2,32.5h-17.9l-21.1-29.9h-18.9v29.9h-15.1v-85.8ZM424.4,500.1c10.8,0,17.6-5.6,17.6-14.3v-.2c0-9.2-6.6-14.2-17.8-14.2h-21.9v28.8h22.1Z"/>
    <circle class="st0" cx="518.5" cy="499.5" r="10.3"/>
  </g>
</svg>
